<svg width="141" height="25" viewBox="0 0 141 25" fill="none" xmlns="http://www.w3.org/2000/svg">
<g id="Logo">
<path d="M8.24212 19.8154C2.96285 19.8154 0 16.6938 0 11.0478V0.407166H3.87864V10.7492C3.87864 14.5223 5.36007 16.4224 8.21518 16.4224C11.0972 16.4224 12.5787 14.5223 12.5787 10.7492V0.407166H16.4842V11.0478C16.4842 16.6938 13.4944 19.8154 8.24212 19.8154Z" fill="white"/>
<path d="M32.6535 0.407166H36.5321V19.4083H31.172L24.0881 4.56026V19.4083H20.2095V0.407166H25.9197L32.6535 14.4951V0.407166Z" fill="white"/>
<path d="M40.6212 19.4083V0.407166H44.4998V19.4083H40.6212Z" fill="white"/>
<path d="M66.8531 9.90771C66.8531 16.2866 61.9779 19.6525 56.9141 20.8469C60.1194 20.9555 62.8398 21.3084 65.237 21.797V25C60.9274 24.1042 55.4327 23.5885 50.2073 23.5885V20.3854C52.9277 20.304 55.6751 19.9783 57.9646 19.1097C57.5336 19.164 57.0757 19.1911 56.6448 19.1911C51.9042 19.1911 47.7023 15.6623 47.7023 9.82627C47.7023 4.20738 51.581 0 57.2912 0C62.8937 0 66.8531 4.09881 66.8531 9.90771ZM51.7157 9.85342C51.7157 13.7894 54.0051 16.3952 57.2912 16.3952C60.5773 16.3952 62.8398 13.8165 62.8398 9.88056C62.8398 5.99891 60.6042 3.31162 57.2643 3.31162C53.9513 3.31162 51.7157 5.97177 51.7157 9.85342Z" fill="white"/>
<path d="M78.8628 19.8154C72.8563 19.8154 69.1662 15.418 69.1662 9.88056C69.1662 4.12595 73.0987 0 78.7551 0C84.1151 0 87.8591 3.63735 87.051 8.44191H83.0377C83.5764 5.3203 81.691 3.31162 78.8089 3.31162C75.3612 3.31162 73.1795 6.21607 73.1795 9.88056C73.1795 13.7079 75.4959 16.5038 78.8628 16.5038C81.5563 16.5038 83.3609 14.7123 83.765 12.3507H87.886C87.2396 16.911 83.738 19.8154 78.8628 19.8154Z" fill="white"/>
<path d="M103.699 19.4083L102.272 15.608H93.8681L92.4406 19.4083H88.2926L95.6189 0.407166H100.333L107.686 19.4083H103.699ZM95.0533 12.405H101.087L98.07 4.31596L95.0533 12.405Z" fill="white"/>
<path d="M116.418 19.8154C111.435 19.8154 108.284 17.1824 108.607 13.0565H112.512C112.378 15.2823 113.859 16.5852 116.499 16.5852C118.788 16.5852 120.162 15.5809 120.162 14.1151C120.162 9.88056 108.849 13.4908 108.849 6.02606C108.849 2.25299 111.758 0 116.256 0C121.159 0 124.121 2.6873 123.637 6.73181H119.731C120.054 4.50597 118.681 3.23019 116.176 3.23019C114.102 3.23019 112.782 4.15309 112.782 5.59175C112.782 9.82627 124.121 6.32465 124.121 13.6808C124.121 17.5081 121.105 19.8154 116.418 19.8154Z" fill="white"/>
<path d="M131.25 16.2052H141V19.4083H127.371V0.407166H140.731V3.61021H131.25V7.79044H139.33V10.9935H131.25V16.2052Z" fill="white"/>
</g>
</svg>
